<svg xmlns="http://www.w3.org/2000/svg" viewBox="0 0 900 900" fill="none">
<path d="M708.292 69.0765C715.567 57.2236 728.476 50 742.383 50H809.429C838.634 50 857.994 80.2835 845.734 106.791L512.734 826.791C506.19 840.942 492.02 850 476.429 850H300.483C269.211 850 250.034 815.729 266.392 789.077L708.292 69.0765Z" fill="#1CEBA0"/>
<path d="M55.301 379.806C43.0274 353.297 62.3868 323 91.5993 323H130.381C142.756 323 154.434 328.728 162.01 338.513L508.075 785.513C528.426 811.8 509.69 850 476.446 850H298.559C282.975 850 268.809 840.948 262.261 826.806L55.301 379.806Z" fill="#3EB489"/>
</svg>
